<svg id="Layer_1" data-name="Layer 1" xmlns="http://www.w3.org/2000/svg" viewBox="0 0 1024 1024"><defs><style>.cls-1,.cls-5{fill:#fff;}.cls-1,.cls-2,.cls-3,.cls-4,.cls-5{stroke:#1d1d1b;stroke-miterlimit:10;}.cls-1{stroke-width:14px;}.cls-2{fill:#009ee2;}.cls-2,.cls-4,.cls-5{stroke-width:3px;}.cls-3{fill:#009540;stroke-width:2px;}.cls-4{fill:#ffec00;}.cls-6{font-size:130.64px;fill:#f8b133;font-family:ComicSansMS-Bold, Comic Sans MS;font-weight:700;}.cls-7{fill:#1d1d1b;}</style></defs><rect class="cls-1" x="462.2" y="116.26" width="172.63" height="203.04"/><polyline class="cls-2" points="742.22 328.63 742.22 71.02 331.76 66.46 110.87 291.9 110.87 930.46 742.22 930.46"/><polyline class="cls-3" points="331.76 66.46 331.76 282.81 110.87 291.9"/><path class="cls-4" d="M790.31,516.84s181.28,7.87,184.52,192S769,894.6,769,894.6,637.67,878.86,597.15,760l-68.9.79-42.14-43.29-51.06,45.65-47.82-48-49.44,45.65-51.87-42.5-35.66,42.5L183,758.45l-56.73-58.24,55.11-53.51,423.07-5.51S667.39,509,790.31,516.84Z"/><ellipse class="cls-5" cx="856.77" cy="703.88" rx="62.41" ry="63.75"/><text class="cls-6" transform="translate(288.69 463.27) scale(1.03 1)">AES</text><ellipse class="cls-7" cx="742.22" cy="423.41" rx="6.03" ry="5.51"/></svg>