<svg id="Layer_1" data-name="Layer 1" xmlns="http://www.w3.org/2000/svg" viewBox="0 0 1024 1024"><defs><style>.cls-1{fill:#ff0;}.cls-2{fill:#29abe2;}.cls-3{fill:#fff;}.cls-4{fill:none;}.cls-5{fill:#c69c6d;}.cls-6{fill:#009245;}</style></defs><path class="cls-1" d="M115.28,251l-3.41,527.38c0,48.48,32.41,87.78,72.39,87.78h649c41.39,0,74.93-40.68,74.93-90.85V217.38c0-48.48-32.41-87.78-72.39-87.78L619.25,131"/><ellipse class="cls-2" cx="720.5" cy="644.07" rx="151.31" ry="183.44"/><ellipse class="cls-3" cx="719.37" cy="639.94" rx="95.56" ry="115.86"/><line class="cls-4" x1="800.44" y1="799.85" x2="816.07" y2="817.86"/><line class="cls-4" x1="836.84" y1="761.37" x2="852.47" y2="782"/><path class="cls-5" d="M965.66,973.79l-10.39,11c-12.38,13-31.14,11.48-41.91-3.53L821,852.52c-10.76-15-9.46-37.75,2.91-50.8l10.4-11c12.37-13,31.13-11.48,41.9,3.53L968.57,923C979.34,938,978,960.74,965.66,973.79Z"/><path class="cls-6" d="M620.39,131s-56.88,33.11-70.53,60.69H174.44s-51.2,1-59.16,60.69"/><path class="cls-6" d="M549.86,191.67S486.15,357.18,395.14,368.22H165.34s-42.1,13.51-50.06,44.14"/></svg>